HIERARCHY
ROOT Hips
{
	OFFSET 0.000000 8.830580 0.000000
	CHANNELS 6 Xposition Yposition Zposition Zrotation Yrotation Xrotation 
	JOINT Spine
	{
		OFFSET 0.000000 0.010000 0.000000
		CHANNELS 3 Zrotation Yrotation Xrotation
		JOINT Spine1
		{
			OFFSET 0.000000 2.459130 0.000000
			CHANNELS 3 Zrotation Yrotation Xrotation
			JOINT Neck
			{
				OFFSET 0.000000 2.484630 0.000000
				CHANNELS 3 Zrotation Yrotation Xrotation
				JOINT Head_virtual
				{
					OFFSET 0.000000 0.000000 0.000000
					CHANNELS 3 Zrotation Yrotation Xrotation
					JOINT Head
					{
						OFFSET 0.000000 0.927525 0.000000
						CHANNELS 3 Zrotation Yrotation Xrotation
						End Site
						{
							OFFSET 0.000000 0.000000 0.000000
						}
					}
				}
				JOINT LeftUpArm_virtual
				{
					OFFSET 0.000000 0.000000 0.000000
					CHANNELS 3 Zrotation Yrotation Xrotation
					JOINT LeftUpArm
					{
						OFFSET 1.248820 0.000000 0.000000
						CHANNELS 3 Zrotation Yrotation Xrotation
						JOINT LeftForeArm
						{
							OFFSET 2.597580 0.000000 0.000000
							CHANNELS 3 Zrotation Yrotation Xrotation
							JOINT LeftHand
							{
								OFFSET 2.455420 0.000000 0.000000
								CHANNELS 3 Zrotation Yrotation Xrotation
								End Site
								{
									OFFSET 0.000000 0.000000 0.000000
								}
							}
						}
					}
				}
				JOINT RightUpArm_virtual
				{
					OFFSET -0.000000 -0.000000 -0.000000
					CHANNELS 3 Zrotation Yrotation Xrotation
					JOINT RightUpArm
					{
						OFFSET -1.248820 -0.000000 -0.000000
						CHANNELS 3 Zrotation Yrotation Xrotation
						JOINT RightForeArm
						{
							OFFSET -2.597580 -0.000000 -0.000000
							CHANNELS 3 Zrotation Yrotation Xrotation
							JOINT RightHand
							{
								OFFSET -2.455420 -0.000000 -0.000000
								CHANNELS 3 Zrotation Yrotation Xrotation
								End Site
								{
									OFFSET 0.000000 0.000000 0.000000
								}
							}
						}
					}
				}
			}
		}
	}
	JOINT LeftUpLeg
	{
		OFFSET 1.271939 0.000000 0.000000
		CHANNELS 3 Zrotation Yrotation Xrotation
		JOINT LeftLowLeg
		{
			OFFSET 0.000000 -4.342910 0.000000
			CHANNELS 3 Zrotation Yrotation Xrotation
			JOINT LeftFoot
			{
				OFFSET 0.000000 -4.487670 0.000000
				CHANNELS 3 Zrotation Yrotation Xrotation
				JOINT LeftToeBase
				{
					OFFSET 0.000000 0.000000 1.515070
					CHANNELS 3 Zrotation Yrotation Xrotation
					End Site
					{
						OFFSET 0.000000 0.000000 0.000000
					}
				}
			}
		}
	}
	JOINT RightUpLeg
	{
		OFFSET -1.271939 0.000000 0.000000
		CHANNELS 3 Zrotation Yrotation Xrotation
		JOINT RightLowLeg
		{
			OFFSET 0.000000 -4.342910 0.000000
			CHANNELS 3 Zrotation Yrotation Xrotation
			JOINT RightFoot
			{
				OFFSET 0.000000 -4.487670 0.000000
				CHANNELS 3 Zrotation Yrotation Xrotation
				JOINT RightToeBase
				{
					OFFSET 0.000000 0.000000 1.515070
					CHANNELS 3 Zrotation Yrotation Xrotation
					End Site
					{
						OFFSET 0.000000 0.000000 0.000000
					}
				}
			}
		}
	}
}
MOTION
Frames: 8
Frame Time: 0.041667
-19.263446 8.910491 55.942199 178.395044 2.952093 174.803653 3.880711 -0.144546 -10.745335 -7.510888 3.127262 15.098318 0.000000 0.000000 0.000000 9.758584 3.125525 13.200823 -8.097441 -6.530329 -85.606654 -25.687000 3.243430 7.441986 -44.961300 -6.631700 28.912500 0.000000 -20.228201 0.000000 12.753400 16.571800 -8.234030 30.898701 -4.277860 1.864014 46.773602 1.245450 18.553986 0.000000 22.709999 0.000000 -1.687150 -7.525600 51.187901 -4.073792 -6.397558 2.375481 0.000000 0.000000 15.911000 -18.193898 10.302949 -6.456945 0.000000 0.000000 -20.434690 2.131754 13.893632 0.820094 0.000000 0.000000 19.723900 33.325076 -6.057151 -13.134529 0.000000 0.000000 -16.150210 
-19.261664 8.911924 55.937562 178.482213 2.557809 175.088692 3.884076 -0.368147 -11.272036 -7.436250 3.050852 15.430614 0.000000 0.000000 0.000000 9.866376 3.093530 12.788811 -8.137731 -6.386649 -85.646373 -25.672701 3.244670 7.471985 -45.005402 -6.789290 28.864700 0.000000 -20.285601 0.000000 12.819800 16.570499 -8.054570 30.778099 -4.245870 1.862000 46.851799 1.287420 18.695007 0.000000 22.738800 0.000000 2.715230 -8.057410 -17.808399 -3.994143 -6.893660 2.044789 0.000000 0.000000 16.012300 -18.207529 10.376160 -6.504011 0.000000 0.000000 -20.435250 2.135984 13.430285 0.717403 0.000000 0.000000 19.490801 33.304954 -6.063419 -13.050287 0.000000 0.000000 -16.177160 
-19.260884 8.912819 55.935594 178.534096 2.234035 174.787263 3.857770 -0.568014 -11.161355 -7.348857 2.957420 15.742710 0.000000 0.000000 0.000000 9.905807 3.083225 12.460812 -8.109499 -6.312877 -85.695391 -25.689699 3.204730 7.441010 -45.017200 -6.859020 28.899401 0.000000 -20.367201 0.000000 12.946100 16.444901 -7.695890 30.708700 -4.196060 1.807007 46.866699 1.349240 18.862000 0.000000 22.791401 0.000000 2.901650 -8.681530 -17.565399 -4.023391 -7.320246 2.281203 0.000000 0.000000 16.131901 -18.261390 10.471088 -6.552486 0.000000 0.000000 -20.402590 2.227483 12.943503 1.189816 0.000000 0.000000 19.246700 33.130219 -6.082476 -12.937988 0.000000 0.000000 -16.209530 
-19.255569 8.910716 55.947414 178.420816 2.856961 174.181228 3.741752 -0.264542 -10.370611 -7.176193 3.279071 15.721303 0.000000 0.000000 0.000000 10.032298 3.009332 12.002673 -8.128730 -6.197278 -85.815409 -25.787201 3.201630 7.470001 -44.900101 -7.073730 28.935699 0.000000 -20.472200 0.000000 13.139500 16.371401 -7.312860 30.756001 -4.061160 1.726013 46.757801 1.341460 19.003998 0.000000 22.895399 0.000000 2.812510 -8.543860 -17.506100 -4.105219 -6.632655 2.883999 0.000000 0.000000 16.079800 -18.277745 10.452085 -6.533980 0.000000 0.000000 -20.433600 2.360018 13.853821 1.434941 0.000000 0.000000 19.740601 33.172054 -6.225241 -13.121442 0.000000 0.000000 -16.183340 
-19.252109 8.909993 55.948899 178.392612 2.822489 174.361836 3.637792 -0.328096 -10.630576 -7.019332 3.363928 15.870464 0.000000 0.000000 0.000000 10.103194 2.983553 11.722362 -8.077028 -6.116923 -85.853939 -25.826000 3.157380 7.447998 -44.858200 -7.096120 29.021799 0.000000 -20.621599 0.000000 13.295400 16.220600 -7.064050 30.732100 -3.982910 1.882996 46.717201 1.491610 18.984985 0.000000 22.941799 0.000000 2.755090 -8.569590 -17.446501 -4.087281 -6.670827 2.669647 0.000000 0.000000 16.120100 -18.257385 10.441358 -6.523887 0.000000 0.000000 -20.493190 2.342491 14.054787 1.210544 0.000000 0.000000 19.840799 33.257666 -6.337098 -13.267637 0.000000 0.000000 -16.180730 
-19.248767 8.910497 55.945994 178.314604 3.003210 174.375124 3.534006 -0.288290 -10.802239 -6.871026 3.551553 16.097853 0.000000 0.000000 0.000000 10.143936 2.997576 11.454055 -8.039300 -6.032259 -85.888843 -25.892799 3.179770 7.442993 -44.779202 -7.189500 29.173800 0.000000 -20.724501 0.000000 13.480400 16.100800 -6.960840 30.701799 -3.904930 1.755005 46.697201 1.434910 19.095001 0.000000 22.943300 0.000000 2.744770 -8.610610 -17.359400 -4.116109 -6.386734 2.745512 0.000000 0.000000 15.984600 -18.255121 10.384254 -6.442558 0.000000 0.000000 -20.522400 2.351023 14.564994 1.149114 0.000000 0.000000 19.976000 33.349264 -6.524808 -13.458095 0.000000 0.000000 -16.148800 
-19.247015 8.912006 55.939056 178.397604 2.582520 174.519366 3.526541 -0.541300 -11.255209 -6.763455 3.461299 16.488034 0.000000 0.000000 0.000000 10.220018 2.968427 11.135028 -7.978324 -5.932157 -85.869141 -25.924400 3.182280 7.468994 -44.738800 -7.307860 29.314800 0.000000 -20.799999 0.000000 13.611600 15.877500 -6.748800 30.680401 -3.881630 1.800995 46.657200 1.560050 19.044006 0.000000 22.957001 0.000000 2.858900 -8.756330 -17.250601 -4.061058 -6.846100 2.583009 0.000000 0.000000 16.051201 -18.273409 10.420612 -6.458668 0.000000 0.000000 -20.539720 2.381485 14.052864 1.254562 0.000000 0.000000 19.645800 33.300557 -6.538667 -13.376612 0.000000 0.000000 -16.161350 
-19.242094 8.909939 55.949467 178.330409 3.018472 174.098994 3.458163 -0.315660 -10.578862 -6.688921 3.635839 16.269051 0.000000 0.000000 0.000000 10.366748 2.928652 10.996889 -7.995046 -5.834904 -85.999488 -26.035101 3.228730 7.537994 -44.551998 -7.408110 29.452400 0.000000 -20.915001 0.000000 13.749900 15.893900 -6.581740 30.789301 -3.867590 1.832001 46.527699 1.648230 19.225006 0.000000 22.832001 0.000000 2.726480 -8.555800 -17.256500 -4.089213 -6.354553 2.965858 0.000000 0.000000 16.065399 -18.319450 10.372210 -6.492845 0.000000 0.000000 -20.476750 2.478544 14.554381 1.426248 0.000000 0.000000 19.945499 33.300069 -6.556881 -13.447192 0.000000 0.000000 -16.142810 
